<?xml version="1.0" encoding="utf-8"?>
<!-- Generator: Adobe Illustrator 23.0.3, SVG Export Plug-In . SVG Version: 6.00 Build 0)  -->
<svg version="1.1" id="Camada_1" xmlns="http://www.w3.org/2000/svg" xmlns:xlink="http://www.w3.org/1999/xlink" x="0px" y="0px"
	 viewBox="0 0 2120.2 543.6" style="enable-background:new 0 0 2120.2 543.6;" xml:space="preserve">
<style type="text/css">
	.st0{fill:#10C1C7;}
</style>
<path class="st0" d="M685,241c14.6,0,27.7,4.2,39.3,12.6c4.5,3.7,9.5,5.1,15.2,4.3c5.7-0.8,10.3-3.4,13.8-7.9
	c3.5-4.5,4.9-9.7,4.2-15.6c-0.8-5.9-3.4-10.6-7.9-14c-19-14.5-39.9-21.7-62.8-21.7c-27.4,0.3-51,10-70.7,29.2s-29.6,42.4-29.6,69.5
	c0,27.1,9.9,50.4,29.6,69.7c19.8,19.4,43.3,29,70.7,29c22.4,0,43.3-7,62.8-20.9c4.5-4,7.1-8.8,7.9-14.4c0.8-5.7-0.6-10.7-4.2-15.2
	c-3.6-4.5-8.2-7.1-14-7.9c-5.8-0.8-10.8,0.5-15,4c-11.6,8.4-24.8,12.6-39.5,12.6c-14.8,0-27.9-5.6-39.3-16.8
	c-11.5-11.2-17.2-24.4-17.2-39.7c0-15.3,5.8-28.6,17.4-39.9C657.2,246.7,670.3,241,685,241z M889.7,198.7c-26.1,0-48.4,9.8-67,29.4
	c-18.6,19.6-27.9,43-27.9,70.1c0,27.1,9.2,50.4,27.7,69.9c18.4,19.5,41,29.2,67.6,29.2c26.6,0,48.6-10,66-30
	c18.4-17.9,27.7-40.6,27.7-68s-9.2-51-27.5-70.9C937.9,208.7,915.7,198.7,889.7,198.7z M926.4,339.8c-10.3,9.8-22.7,14.6-37.1,14.6
	c-14.5,0-26.9-4.9-37.1-14.6c-9.5-11.6-14.2-25.5-14.2-41.9c0-16.3,4.7-30,14.2-41.1c11.3-10,23.7-15,37.1-15s25.8,5,37.1,15
	c10.3,11.1,15.4,24.8,15.4,41.1C941.8,314.2,936.7,328.2,926.4,339.8z M293.2,73.1c-109.8,0-198.8,89-198.8,198.7
	s89,198.7,198.8,198.7S492,381.6,492,271.8S403,73.1,293.2,73.1z M288.5,271.7l-23.7,0.9c-5.1,0-6.7-7.8-2.1-10.1l57.7-24.3
	c3.7-1.6,8.6,2.6,6.7,7.1l-23.5,57.6c-2,4.4-9.8,3-9.9-2v-21.9C293.7,275.2,292.4,271.7,288.5,271.7z M442.3,275.1
	c4.8,7.5,6.6,15.9,5.3,25.1c-8.9,36.3-26.5,65.8-53,88.5c-32.4,27.8-70.1,40.3-113.1,37.5c-43-2.8-78.3-20.3-105.8-52.3
	c-27.6-32.1-39.4-69.5-35.6-112.3c3.8-42.8,21.8-78.2,53.9-106.4c27.1-23.3,59.2-36,96.3-38.1c8.8-0.5,16.6,2.3,23.6,8.6
	c7,6.2,10.6,13.7,11,22.7c0.3,8.9-2.4,16.7-8.3,23.4c-5.9,6.7-13.4,10.1-22.4,10.3c-22.3,1.8-42,10.1-59.3,25
	c-17.3,14.8-27,34.8-29.2,60s4.5,46.8,20,64.8c15.5,18.1,35.7,27.9,60.6,29.5c24.9,1.6,46.1-5.1,63.5-20.1
	c17.4-15,28.7-33.3,33.9-55c1.5-8.3,6.1-15,13.7-19.9c7.6-5,15.9-6.6,24.6-4.9C430.7,263,437.5,267.6,442.3,275.1z M1799.9,285.6
	c-11.6-5.3-24.3-9.4-38.3-12l-0.6-0.2l-0.2,0c-13.4-2.4-22.6-4.6-28.3-8.6c-2.1-1.3-3.5-3.6-4.1-4.7c-0.7-1-1.6-4.2-1.6-6.4
	s0.6-6.8,4.8-9.7c6.1-4.7,16.2-4.3,25-3.4c9.6,0.9,21.8,4.9,36.6,14.6c5,3.4,10.3,4.5,16,3.4c5.7-1.2,10.1-4.1,13.2-8.9
	c2.9-5,3.8-10.3,2.6-16c-1.2-5.7-4.2-10.1-8.9-13.2c-21.1-14.5-40.8-21.7-59.1-21.7c-18.3,0-34.6,4.9-48.8,14.6
	c-15.6,11.9-23.3,26.3-23.3,43.5c0,9.2,2.2,17.5,6.7,24.9c6.3,9.5,14.7,16.7,25.1,21.7c10.4,5,22.6,8.8,36.6,11.5h0.4
	c14.8,2.9,25.3,6.6,31.6,11.1c2.9,1.8,4.6,3.4,5.1,4.7c0.8,1.1,1.6,3.2,1.6,6c0,2.8-1,7.7-5.8,11.6c-7.9,5-19.3,6.1-29.8,5.3
	c-14.7-1.2-28.1-5.1-42.3-17c-4.2-3.7-9.4-5.3-15.4-4.7c-6.1,0.5-10.8,3.2-14.2,7.9c-3.7,4.2-5.2,9.3-4.6,15.2
	c0.7,5.9,3.1,10.6,7.3,14c22.4,17.9,45.8,27,70.3,27.3c19,0,36.1-5.3,51.4-15.8c16.6-12.1,24.9-27.4,24.9-45.8c0-9-2.8-18-8.3-27.3
	C1820.1,298.2,1811.5,290.9,1799.9,285.6z M2017.5,307.4c-5.5-9.2-14.1-16.5-25.7-21.7c-11.6-5.3-24.3-9.4-38.3-12l-0.6-0.2l-0.2,0
	c-13.4-2.4-22.6-4.6-28.3-8.6c-2.1-1.3-3.5-3.6-4.1-4.7c-0.7-1-1.6-4.2-1.6-6.4s0.6-6.8,4.8-9.7c6.1-4.7,16.2-4.3,25-3.4
	c9.6,0.9,21.8,4.9,36.6,14.6c5,3.4,10.3,4.5,16,3.4c5.7-1.2,10.1-4.1,13.2-8.9c2.9-5,3.8-10.3,2.6-16c-1.2-5.7-4.2-10.1-8.9-13.2
	c-21.1-14.5-40.8-21.7-59.1-21.7c-18.3,0-34.6,4.9-48.8,14.6c-15.6,11.9-23.3,26.3-23.3,43.5c0,9.2,2.2,17.5,6.7,24.9
	c6.3,9.5,14.7,16.7,25.1,21.7c10.4,5,22.6,8.8,36.6,11.5h0.4c14.8,2.9,25.3,6.6,31.6,11.1c2.9,1.8,4.6,3.4,5.1,4.7
	c0.8,1.1,1.6,3.2,1.6,6c0,2.8-1,7.7-5.8,11.6c-7.9,5-19.3,6.1-29.8,5.3c-14.7-1.2-28.1-5.1-42.3-17c-4.2-3.7-9.4-5.3-15.4-4.7
	c-6.1,0.5-10.8,3.2-14.2,7.9c-3.7,4.2-5.2,9.3-4.5,15.2c0.7,5.9,3.1,10.6,7.3,14c22.4,17.9,45.8,27,70.3,27.3
	c19,0,36.1-5.3,51.4-15.8c16.6-12.1,24.9-27.4,24.9-45.8C2025.8,325.7,2023,316.6,2017.5,307.4z M1621.9,198.7
	c-5.4,0-9.9,1.6-13.6,4.9c-3.7,3.3-6.2,7.4-7.5,12.4c-16.3-11.6-33.8-17.4-52.6-17.4c-26.6,0-48.9,9.7-67,29s-27.1,42.7-27.1,69.9
	c0,27.3,9,50.5,27.1,69.7c18,19.2,40.4,28.8,67,28.8c19,0,36.5-5.7,52.6-17c1.3,5,3.8,9.1,7.5,12.2c3.7,3.2,8.2,4.7,13.6,4.7
	c5.4,0,10.1-2,14.2-6.1c4.1-4.1,6.1-9,6.1-14.8V220.1c0-5.8-2-10.8-6.1-15C1632,200.8,1627.3,198.7,1621.9,198.7z M1585.6,337.8
	c-9.9,10.8-22.4,16.2-37.5,16.2s-27.5-5.4-37.1-16.2c-9.6-10.8-14.4-24.2-14.4-40.1c0-15.9,4.9-29.4,14.6-40.3
	c9.8-10.9,22.1-16.4,36.9-16.4s27.3,5.5,37.3,16.6c10,11.1,15,24.5,15,40.3C1600.4,313.7,1595.4,327,1585.6,337.8z M1321.4,198.7
	c-19.2,0-37.1,5.4-53.7,16.2c-0.8-4.5-3.2-8.3-7.3-11.5c-4.1-3.2-8.9-4.7-14.6-4.7s-10.5,2-14.6,6.1c-4.1,4.1-6.1,9-6.1,14.8v229.5
	c0,5.5,2.1,10.5,6.3,14.8s9.3,6.5,15.2,6.5c5.9,0,11.1-2.2,15.4-6.5c4.3-4.4,6.5-9.3,6.5-14.8v-69.5c15,10.8,32.7,16.2,52.9,16.2
	c26.3,0,48.9-9.5,67.6-28.6c18.7-19.1,28.1-42.2,28.1-69.3s-9.4-50.4-28.1-69.9C1370.3,208.5,1347.8,198.7,1321.4,198.7z
	 M1358.4,337.4c-10.4,11.1-22.9,16.6-37.5,16.6s-26.9-5.5-36.9-16.6c-10.3-9.2-15.4-22-15.4-38.3c0-16.3,5.1-30,15.2-40.9
	s22.6-16.4,37.3-16.4c14.8,0,27.3,5.4,37.5,16.2c10.3,11.6,15.4,25,15.4,40.1C1374,313.2,1368.8,326.3,1358.4,337.4z M1104.9,198.7
	c-15,0-29,4.1-41.9,12.2c-3.9-8.2-10.4-12.2-19.4-12.2c-5.8,0-10.7,2-14.8,6.1c-4.1,4.1-6.1,9-6.1,14.8v155.7c0,5.8,2,10.7,6.1,14.8
	c4.1,4.1,8.9,6.1,14.6,6.1c5.7,0,10.7-2,15.2-6.1c4.5-4.1,6.7-9,6.7-14.8v-94.4c0-11.1,3.8-20.5,11.5-28.2
	c7.6-7.8,17.1-11.7,28.2-11.7c11.2,0,20.8,3.9,28.8,11.7c8,7.8,12.1,17.2,12.1,28.2v94.4c0,5.8,2.1,10.7,6.3,14.8
	c4.2,4.1,9.2,6.1,14.8,6.1c5.7,0,10.5-2,14.4-6.1c3.9-4.1,5.9-9,5.9-14.8v-94.4c0-22.4-8-41.7-24.1-57.9
	C1147.3,206.8,1127.8,198.7,1104.9,198.7z"/>
</svg>
